<svg width="24" height="24" viewBox="0 0 24 24" fill="none" xmlns="http://www.w3.org/2000/svg">
<g clip-path="url(#clip0_6908_951)">
<path fill-rule="evenodd" clip-rule="evenodd" d="M11.9993 4.9001C11.3918 4.9001 10.8993 5.39258 10.8993 6.0001C10.8993 6.60761 11.3918 7.1001 11.9993 7.1001C12.6068 7.1001 13.0993 6.60761 13.0993 6.0001C13.0993 5.39258 12.6068 4.9001 11.9993 4.9001ZM9.09927 6.0001C9.09927 4.39847 10.3976 3.1001 11.9993 3.1001C13.6009 3.1001 14.8993 4.39847 14.8993 6.0001C14.8993 7.28697 14.0611 8.37808 12.9008 8.75722V9.09932H19.5008L20.4008 9.99932V12.5993H21.0008L21.9008 13.4993V16.4993L21.0008 17.3993H20.4008V19.9993L19.5008 20.8993H4.50083L3.60083 19.9993V17.3993H3.00083L2.10083 16.4993L2.10083 13.4993L3.00083 12.5993H3.60083V9.99932L4.50083 9.09932H11.1008V8.75824C9.93898 8.38003 9.09927 7.28813 9.09927 6.0001ZM5.40083 10.8993V19.0993H18.6008V10.8993H5.40083ZM8.60005 16.5001V13.5001H10.4V16.5001H8.60005ZM13.6 16.5001V13.5001H15.4V16.5001H13.6Z" fill="#121212"/>
</g>
<defs>
<clipPath id="clip0_6908_951">
<rect width="24" height="24" fill="white"/>
</clipPath>
</defs>
</svg>
