<svg width="24" height="24" viewBox="0 0 24 24" fill="none" xmlns="http://www.w3.org/2000/svg">
<g clip-path="url(#clip0_6908_891)">
<path fill-rule="evenodd" clip-rule="evenodd" d="M12.0001 3.9001C7.52659 3.9001 3.9001 7.52659 3.9001 12.0001C3.9001 16.4736 7.52659 20.1001 12.0001 20.1001C16.4736 20.1001 20.1001 16.4736 20.1001 12.0001C20.1001 7.52659 16.4736 3.9001 12.0001 3.9001ZM2.1001 12.0001C2.1001 6.53248 6.53248 2.1001 12.0001 2.1001C17.4677 2.1001 21.9001 6.53248 21.9001 12.0001C21.9001 17.4677 17.4677 21.9001 12.0001 21.9001C6.53248 21.9001 2.1001 17.4677 2.1001 12.0001ZM7.0637 10.8637L11.3637 6.5637H12.6365L16.9365 10.8637L15.6637 12.1365L12.9001 9.37289V17.5001H11.1001V9.37289L8.33649 12.1365L7.0637 10.8637Z" fill="#121212"/>
</g>
<defs>
<clipPath id="clip0_6908_891">
<rect width="24" height="24" fill="white"/>
</clipPath>
</defs>
</svg>
