<svg width="24" height="24" viewBox="0 0 24 24" fill="none" xmlns="http://www.w3.org/2000/svg">
<g clip-path="url(#clip0_6908_896)">
<path fill-rule="evenodd" clip-rule="evenodd" d="M12 3.9001C7.52647 3.9001 3.89998 7.52659 3.89998 12.0001C3.89998 16.4736 7.52647 20.1001 12 20.1001C16.4735 20.1001 20.1 16.4736 20.1 12.0001C20.1 7.52659 16.4735 3.9001 12 3.9001ZM2.09998 12.0001C2.09998 6.53248 6.53236 2.1001 12 2.1001C17.4676 2.1001 21.9 6.53248 21.9 12.0001C21.9 17.4677 17.4676 21.9001 12 21.9001C6.53236 21.9001 2.09998 17.4677 2.09998 12.0001ZM11.2518 13.2414L15.7189 8.76441L16.9931 10.0358L11.8891 15.1511L10.6151 15.1513L7.06307 11.5937L8.33688 10.3219L11.2518 13.2414Z" fill="#121212"/>
</g>
<defs>
<clipPath id="clip0_6908_896">
<rect width="24" height="24" fill="white"/>
</clipPath>
</defs>
</svg>
