<svg width="24" height="24" viewBox="0 0 24 24" fill="none" xmlns="http://www.w3.org/2000/svg">
<g clip-path="url(#clip0_6908_878)">
<path fill-rule="evenodd" clip-rule="evenodd" d="M7.1001 5.72039V3H8.9001V5.72039C10.3411 6.11493 11.4001 7.4338 11.4001 9C11.4001 10.5662 10.3411 11.8851 8.9001 12.2796V21H7.1001V12.2796C5.65909 11.8851 4.6001 10.5662 4.6001 9C4.6001 7.4338 5.65909 6.11493 7.1001 5.72039ZM15.1001 11.7204V3H16.9001V11.7204C18.3411 12.1149 19.4001 13.4338 19.4001 15C19.4001 16.5662 18.3411 17.8851 16.9001 18.2796V21H15.1001V18.2796C13.6591 17.8851 12.6001 16.5662 12.6001 15C12.6001 13.4338 13.6591 12.1149 15.1001 11.7204ZM8.0001 7.4C7.11644 7.4 6.4001 8.11634 6.4001 9C6.4001 9.88366 7.11644 10.6 8.0001 10.6C8.88375 10.6 9.6001 9.88366 9.6001 9C9.6001 8.11634 8.88375 7.4 8.0001 7.4ZM16.0001 13.4C15.1164 13.4 14.4001 14.1163 14.4001 15C14.4001 15.8837 15.1164 16.6 16.0001 16.6C16.8838 16.6 17.6001 15.8837 17.6001 15C17.6001 14.1163 16.8838 13.4 16.0001 13.4Z" fill="#121212"/>
</g>
<defs>
<clipPath id="clip0_6908_878">
<rect width="24" height="24" fill="white"/>
</clipPath>
</defs>
</svg>
