<svg width="24" height="24" viewBox="0 0 24 24" fill="none" xmlns="http://www.w3.org/2000/svg">
<g clip-path="url(#clip0_8583_43460)">
<path fill-rule="evenodd" clip-rule="evenodd" d="M8.0001 4.9001C5.73573 4.9001 3.9001 6.73573 3.9001 9.0001C3.9001 9.90858 4.19454 10.7458 4.69355 11.4249L8.34886 15.3761L12.0001 19.0273L15.6513 15.3761L19.3066 11.4249C19.8057 10.7458 20.1001 9.90858 20.1001 9.0001C20.1001 6.73573 18.2645 4.9001 16.0001 4.9001C14.6597 4.9001 13.4697 5.54284 12.72 6.5407L11.2809 6.54062C10.5313 5.54274 9.34089 4.9001 8.0001 4.9001ZM2.1001 9.0001C2.1001 5.74162 4.74162 3.1001 8.0001 3.1001C9.54413 3.1001 10.9497 3.69382 12.0005 4.66348C13.0511 3.69406 14.4561 3.1001 16.0001 3.1001C19.2586 3.1001 21.9001 5.74162 21.9001 9.0001C21.9001 10.3275 21.4606 11.5549 20.7196 12.5412L20.692 12.578L16.9489 16.6241L12.6365 20.9365L11.3637 20.9365L7.05133 16.6241L3.3082 12.578L3.28055 12.5412C2.53956 11.5549 2.1001 10.3275 2.1001 9.0001Z" fill="#121212"/>
</g>
<defs>
<clipPath id="clip0_8583_43460">
<rect width="24" height="24" fill="white"/>
</clipPath>
</defs>
</svg>
