<svg width="24" height="24" viewBox="0 0 24 24" fill="none" xmlns="http://www.w3.org/2000/svg">
<g clip-path="url(#clip0_7234_47721)">
<path fill-rule="evenodd" clip-rule="evenodd" d="M7 5.1001L4 5.1001L4 6.9001L7 6.9001L7 5.1001ZM7 11.1001L4 11.1001L4 12.9001L7 12.9001L7 11.1001ZM7 17.1001L4 17.1001L4 18.9001L7 18.9001L7 17.1001ZM20 5.1001L9 5.1001L9 6.9001L20 6.9001L20 5.1001ZM20 11.1001L9 11.1001L9 12.9001L20 12.9001L20 11.1001ZM20 17.1001L9 17.1001L9 18.9001L20 18.9001L20 17.1001Z" fill="#121212"/>
</g>
<defs>
<clipPath id="clip0_7234_47721">
<rect width="24" height="24" fill="white"/>
</clipPath>
</defs>
</svg>
