<svg width="24" height="24" viewBox="0 0 24 24" fill="none" xmlns="http://www.w3.org/2000/svg">
<g clip-path="url(#clip0_6908_949)">
<path fill-rule="evenodd" clip-rule="evenodd" d="M12.0001 3.9001C7.52659 3.9001 3.9001 7.52659 3.9001 12.0001C3.9001 16.4736 7.52659 20.1001 12.0001 20.1001C16.4736 20.1001 20.1001 16.4736 20.1001 12.0001C20.1001 7.52659 16.4736 3.9001 12.0001 3.9001ZM2.1001 12.0001C2.1001 6.53248 6.53248 2.1001 12.0001 2.1001C17.4677 2.1001 21.9001 6.53248 21.9001 12.0001C21.9001 17.4677 17.4677 21.9001 12.0001 21.9001C6.53248 21.9001 2.1001 17.4677 2.1001 12.0001Z" fill="#121212"/>
<path d="M11.2001 15.3001L9.8001 10.6101V15.3001H8.2001L8.2001 8.6001H10.7001L12.0001 12.9551L13.3001 8.6001H15.8001V15.3001H14.2001V10.6101L12.8001 15.3001H11.2001Z" fill="#121212"/>
</g>
<defs>
<clipPath id="clip0_6908_949">
<rect width="24" height="24" fill="white"/>
</clipPath>
</defs>
</svg>
