<svg width="24" height="24" viewBox="0 0 24 24" fill="none" xmlns="http://www.w3.org/2000/svg">
<path fill-rule="evenodd" clip-rule="evenodd" d="M12 3.9001C7.52647 3.9001 3.89998 7.52659 3.89998 12.0001C3.89998 13.6557 4.39669 15.1953 5.24923 16.478L7.36352 14.3637L7.99991 14.1001H15.9999L16.6363 14.3637L18.7507 16.4781C19.6032 15.1954 20.1 13.6557 20.1 12.0001C20.1 7.52659 16.4735 3.9001 12 3.9001ZM17.5895 17.8625L15.6271 15.9001H8.37271L6.41039 17.8624C7.86403 19.2488 9.83259 20.1001 12 20.1001C14.1673 20.1001 16.1359 19.2489 17.5895 17.8625ZM2.09998 12.0001C2.09998 6.53248 6.53236 2.1001 12 2.1001C17.4676 2.1001 21.9 6.53248 21.9 12.0001C21.9 17.4677 17.4676 21.9001 12 21.9001C6.53236 21.9001 2.09998 17.4677 2.09998 12.0001ZM12 7.9001C11.1163 7.9001 10.4 8.61644 10.4 9.5001C10.4 10.3838 11.1163 11.1001 12 11.1001C12.8836 11.1001 13.6 10.3838 13.6 9.5001C13.6 8.61644 12.8836 7.9001 12 7.9001ZM8.59997 9.5001C8.59997 7.62233 10.1222 6.1001 12 6.1001C13.8777 6.1001 15.4 7.62233 15.4 9.5001C15.4 11.3779 13.8777 12.9001 12 12.9001C10.1222 12.9001 8.59997 11.3779 8.59997 9.5001Z" fill="#121212"/>
</svg>
