<svg width="24" height="24" viewBox="0 0 24 24" fill="none" xmlns="http://www.w3.org/2000/svg">
<g clip-path="url(#clip0_9380_961)">
<path fill-rule="evenodd" clip-rule="evenodd" d="M12 4.4001C7.80261 4.4001 4.39998 7.80273 4.39998 12.0001C4.39998 13.2455 4.69928 14.4182 5.22872 15.4538L5.3099 16.04L4.64733 19.3528L7.95921 18.6904L8.54543 18.7716C9.58089 19.3011 10.7542 19.6001 12 19.6001C16.1973 19.6001 19.6 16.1975 19.6 12.0001C19.6 7.80273 16.1973 4.4001 12 4.4001ZM2.59998 12.0001C2.59998 6.80862 6.8085 2.6001 12 2.6001C17.1915 2.6001 21.4 6.80862 21.4 12.0001C21.4 17.1916 17.1915 21.4001 12 21.4001C10.5765 21.4001 9.2248 21.0831 8.01362 20.5152L3.67656 21.3826L2.61753 20.3236L3.48513 15.9856C2.91738 14.7748 2.59998 13.4236 2.59998 12.0001Z" fill="#121212"/>
<path fill-rule="evenodd" clip-rule="evenodd" d="M13.5 8.6001H15.1L14.8373 9.7001H16.1L15.6941 11.4001H14.4313L14.1686 12.5001H15.5L15.0941 14.2001H13.7627L13.5 15.3001H11.9L12.1627 14.2001H10.5627L10.3 15.3001H8.79998L9.06266 14.2001H7.80037L8.20623 12.5001H9.46863L9.73132 11.4001H8.40037L8.80623 9.7001H10.1373L10.4 8.6001H11.9L11.6373 9.7001H13.2373L13.5 8.6001ZM11.2313 11.4001L10.9686 12.5001H12.5686L12.8313 11.4001H11.2313Z" fill="#121212"/>
</g>
<defs>
<clipPath id="clip0_9380_961">
<rect width="24" height="24" rx="5" fill="white"/>
</clipPath>
</defs>
</svg>
